<?xml version="1.0" encoding="UTF-8" standalone="no"?>
<svg
   xmlns:dc="http://purl.org/dc/elements/1.1/"
   xmlns:cc="http://creativecommons.org/ns#"
   xmlns:rdf="http://www.w3.org/1999/02/22-rdf-syntax-ns#"
   xmlns:svg="http://www.w3.org/2000/svg"
   xmlns="http://www.w3.org/2000/svg"   version="1.1"
   viewBox="0 0 179.37636 107.75621">
  <g
     transform="translate(-6.3266418,-57.77583)">
    <path class="b" d="m 90.804822,99.955539 -0.334087,-7.34991 3.674954,6.280832 z"/>
    <path class="a" d="m 89.201203,95.812863 -1.536798,2.204971 1.670434,0.935445 z"/>
    <path class="d" d="m 93.811602,106.23637 -4.944486,-1.20271 0.267269,4.34313 2.672697,0.26727 z"/>
    <path class="c" d="m 93.811602,106.23637 -2.605876,-4.54358 39.221804,-25.323786 4.20949,5.545842 -11.96031,25.323784 z"/>
    <path class="b" d="m 105.53137,92.371767 -0.0267,-14.733234 5.17505,2.676037 4.05247,6.277494 z"/>
    <path class="a" d="m 105.50463,77.638533 -9.888959,12.294399 3.60814,0.895355 6.307569,-6.94901 z"/>
    <path class="d" d="m 130.42753,76.369004 11.35895,-5.87993 41.69405,9.621702 -12.96257,11.693043 -35.88094,-9.888973 z"/>
    <path class="b" d="m 183.48053,80.110776 2.07134,6.982416 -5.14494,4.443356 -4.47677,-2.539058 z"/>
    <path class="a" d="m 173.92564,99.220548 -1.00226,-4.075861 4.54358,-4.543581 z"/>
    <path class="e" d="m 160.36172,113.51947 5.67947,-2.73951 -0.0668,-4.54359 z"/>
    <path class="f" d="m 158.69128,110.71314 8.01809,-13.163026 -44.03266,9.688516 z"/>
    <path class="g" d="m 162.70033,98.351923 3.27405,-7.750817 -31.33736,-8.68626 -11.96031,25.323784 z"/>
    <path class="b" d="m 155.75131,110.44587 -8.68625,15.70208 -9.82216,-8.95353 3.87541,-8.15172 z"/>
    <path class="a" d="m 133.10022,126.08114 8.01809,-17.03844 -18.4416,-1.80407 0.20045,8.21854 z"/>
    <path class="h" d="m 115.7277,123.34162 7.14946,-3.87541 -0.20045,-12.22758 -12.49418,-0.4306 z"/>
    <path class="c" d="m 134.1693,125.14569 -0.26727,2.80633 1.80407,-1.26953 z"/>
    <path class="e" d="m 109.38006,113.71992 -20.31249,-1.73725 -0.467722,15.63527 27.081082,-2.49229 z"/>
    <path class="d" d="m 114.79226,120.60211 -2.93996,-8.75308 -2.47224,1.87089 z"/>
    <path class="f" d="m 99.909193,112.9009 -1.487189,-3.19002 -9.354434,2.27179 z"/>
    <path class="f" d="m 111.24959,109.99535 -4.00769,-0.21765 -2.13816,-2.80634 5.07879,-0.16333 z"/>
    <path class="g" d="m 119.66993,124.81161 -23.416151,2.11143 5.442281,20.53966 z"/>
    <path class="d" d="m 113.16525,133.04685 1.09247,5.79641 -8.15172,10.69078 -4.40994,-2.07136 z"/>
    <path class="h" d="m 89.06757,111.98267 -5.946748,11.29214 5.479026,4.34313 z"/>
    <path class="a" d="m 148.86913,130.35745 6.88219,-9.82216 2.47224,6.41447 -5.87993,5.47903 z"/>
    <path class="d" d="m 161.16352,130.29063 2.73952,4.2095 7.08264,1.26953 -4.27631,-3.80859 z"/>
    <path class="e" d="m 144.45918,124.61115 -2.27179,3.67496 6.34765,6.1472 z"/>
    <path class="f" d="m 155.81813,134.70058 -7.28309,-0.26727 v 0 l 1.20271,-1.06908 z"/>
    <path class="a" d="m 182.14418,149.4004 -3.4745,8.35217 4.47676,-2.93996 1.5368,-3.20724 z"/>
    <path class="a" d="m 153.07862,149.60085 7.95127,-2.60587 -0.86863,-10.95806 -9.08716,6.28084 z"/>
    <path class="c" d="m 161.02989,146.99498 4.40995,4.47676 4.34313,-0.53454 2.60587,-6.68174 z"/>
    <path class="e" d="m 160.16126,136.03692 4.47676,3.34087 -3.60813,7.61719 z"/>
    <path class="b" d="m 166.30846,135.5692 6.08038,8.68626 -11.35895,2.73952 z"/>
    <path class="f" d="m 167.24391,153.14218 2.40542,-0.13364 -0.93544,2.80633 z"/>
    <path class="b" d="m 118.60085,136.97237 -3.0736,2.60588 0.26727,4.6104 1.87089,-0.53454 z"/>
    <path class="f" d="m 75.77091,133.83195 -19.310223,-10.62396 -5.479026,10.49033 14.298921,15.50163 z"/>
    <path class="e" d="m 56.928408,140.38005 -2.739512,22.18337 11.091686,-13.36347 z"/>
    <path class="c" d="m 58.481077,157.40847 -4.292181,5.15495 4.075862,2.80634 2.00452,-1.46999 z"/>
    <path class="f" d="m 80.180856,83.785733 2.739515,4.34313 3.674956,-3.34087 z"/>
    <path class="b" d="M 62.206983,67.950013 81.517206,79.041698 66.282842,87.861593 Z"/>
    <path class="c" d="m 70.960058,91.469733 -4.677216,-3.608142 6.548104,-3.741772 z"/>
    <path class="a" d="m 81.517206,79.041698 1.737251,-21.114292 -26.05878,3.274052 5.011306,6.748555 z"/>
    <path class="a" d="m 54.188896,127.4843 -15.367997,-7.14946 9.220798,-1.5368 z"/>
    <path class="d" d="m 38.820899,120.33484 4.476763,-0.80181 0.958831,-5.72959 -12.56501,-2.71612 z"/>
    <path class="e" d="m 12.76212,120.60211 -3.140417,-2.33861 4.744034,1.06908 z"/>
    <path class="a" d="m 12.49485,94.543331 -6.0135641,-7.216277 4.9444861,-10.95805 13.764381,3.80859 z"/>
    <path class="b" d="M 49.845766,85.188898 26.536322,78.678777 15.860524,90.823571 Z"/>
    <path class="a" d="m 23.760261,89.42512 6.832187,21.40743 16.668749,3.60495 -2.017448,-28.508854 z"/>
    <path class="c" d="m 51.428385,117.05026 -4.167188,-3.43958 -1.389062,-19.612242 12.170833,6.779952 z"/>
    <path class="b" d="m 58.042968,100.77839 8.135937,2.01744 -2.579687,-6.61458 -11.310937,1.422136 z"/>
    <path class="d" d="m 62.39407,103.31645 -3.180506,2.15152 -2.525699,-0.93544 1.355103,-3.75414 z"/>
    <path class="a" d="M 52.288281,97.603385 52.85255,88.489678 63.599218,96.18125 Z"/>
  </g>
</svg>
