<svg xmlns="http://www.w3.org/2000/svg" viewBox="0 0 179.37636 107.75621">
  <g>
    <path class="b" d="M84.169922 34.8125v.009766l.005859-.001954-.005859-.007812zm.248047.511719l.302734 6.68164 3.037109-.972656-3.339843-5.708984z"/>
    <path class="a" d="M82.890625 38.408203l-1.246094 1.787109 1.353516.757813-.107422-2.544922z"/>
    <path class="d" d="M82.800781 47.414062l.25 4.06836 2.488281.248047 1.878907-3.19336-4.617188-1.123047z"/>
    <path class="c" d="M124.19727 18.755859L85.171875 43.953125l2.511719 4.378906 28.714846.998047 11.89258-25.18164-4.09375-5.392579z"/>
    <path class="b" d="M99.427734 20.0625l.027344 14.302734 8.902342-5.591796-3.9668-6.144532-4.962886-2.566406z"/>
    <path class="a" d="M99.179688 20.210938l-9.544922 11.867187 3.345703.830078 6.224609-6.857422-.02539-5.839843z"/>
    <path class="d" d="M135.60156 12.839844l-11.18554 5.791015 4.09375 5.392579 35.77343 9.861328 12.73438-11.488282-41.41602-9.55664z"/>
    <path class="b" d="M177.22656 22.585938l-7.30468 8.595703 4.26953 2.421875 5.01562-4.333985-1.98047-6.683593z"/>
    <path class="a" d="M170.91406 33.347656l-4.05273 4.054688.89258 3.636718 3.16015-7.691406z"/>
    <path class="e" d="M159.6543 48.816406l-5.07032 6.578125 5.12891-2.474609-.05859-4.103516zm-5.56836 6.876953l-.02539.033203.03906-.019531-.01367-.013672z"/>
    <path class="f" d="M160.25 39.953125l-42.96875 9.455078 35.14258 3.390625L160.25 39.953125zm-43.79492 9.474609l-.08008.017578.08008.007813v-.025391z"/>
    <path class="g" d="M128.50391 24.28125l-11.80664 25 39.71289-8.818359 3.19336-7.560547-31.09961-8.621094z"/>
    <path class="b" d="M134.99219 51.394531l-3.79688 7.988281 9.63477 8.785157 8.51953-15.396485-14.35742-1.376953z"/>
    <path class="a" d="M116.60352 49.595703l.19531 8.029297 10.06445 10.457031 7.86524-16.71289-18.125-1.773438z"/>
    <path class="h" d="M104.1582 49.158203l5.43946 16.222656 6.95117-3.769531-.19727-12.033203-12.19336-.419922z"/>
    <path class="c" d="M128.06641 67.640625l-.21485 2.271484 1.45899-1.027343-1.24414-1.244141z"/>
    <path class="e" d="M82.988281 54.337891l-.460937 15.361328 26.751956-2.460938-6.17774-11.18164-20.113279-1.71875z"/>
    <path class="d" d="M105.58789 54.271484l-2.23242 1.689454 4.88672 6.214843-2.6543-7.904297z"/>
    <path class="f" d="M92.150391 52.076172l-8.507813 2.064453 9.861328.835937-1.353515-2.90039zm-9.306641 2.09375l-.078125.019531.080078.005859-.001953-.02539zM103.89258 49.154297l-4.744142.152344L101.10547 51.875l3.76562.205078-.97851-2.925781z"/>
    <path class="g" d="M113.19141 67.179688l-22.980472 2.072265 5.339843 20.15625 17.640629-22.228515z"/>
    <path class="d" d="M106.89258 75.556641L95.691406 89.634766l4.175782 1.96289 8.056642-10.566406-1.03125-5.474609z"/>
    <path class="h" d="M82.726562 54.736328l-5.648437 10.72461 5.203125 4.123046.445312-14.847656z"/>
    <path class="a" d="M149.51758 63.017578l-6.66992 9.519531 3.27734 1.955079 5.75-5.357422-2.35742-6.117188z"/>
    <path class="d" d="M155.25195 72.726562l2.52539 3.878907 6.5918 1.18164-3.92383-3.496093-5.19336-1.564454z"/>
    <path class="e" d="M138.23633 67.103516l-2.0918 3.380859 5.84375 5.660156-3.75195-9.041015z"/>
    <path class="f" d="M143.57227 75.71875l-.92383.820312 5.58984.205079-4.66601-1.025391z"/>
    <path class="a" d="M175.99219 91.826172l-3.25196 7.818359 4.10743-2.699219 1.48046-3.089843-2.33593-2.029297zM153.85352 78.482422l-8.83594 6.107422 1.94531 7.070312 7.73438-2.535156-.84375-10.642578z"/>
    <path class="c" d="M165.98438 86.652344l-10.91211 2.630859 4.21289 4.275391 4.20703-.517578 2.49219-6.388672z"/>
    <path class="e" d="M154.10547 78.519531l.81055 10.216797 3.36328-7.101562-4.17383-3.115235z"/>
    <path class="b" d="M160.12891 78.037109l-5.08008 10.994141 10.93359-2.634766-5.85351-8.359375z"/>
    <path class="f" d="M163.27148 95.361328l-2.02343.113281 1.23633 2.248047.7871-2.361328z"/>
    <path class="b" d="M112.23047 79.5l-2.77539 2.351562.2539 4.392579 1.64258-.46875.87891-6.275391z"/>
    <path class="f" d="M50.310547 65.599609l-5.378906 10.296875L59.064453 91.21875l10.324219-15.125-19.078125-10.494141z"/>
    <path class="e" d="M50.818359 82.876953L48.164062 104.375l10.748047-12.951172-8.09375-8.546875z"/>
    <path class="c" d="M52.222656 99.888672l-4.052734 4.869138 3.890625 2.67774 1.863281-1.36719-1.701172-6.179688z"/>
    <path class="f" d="M74.234375 26.171875l2.509766 3.984375 3.373047-3.066406-5.882813-.917969z"/>
    <path class="b" d="M56.183594 10.416016l3.986328 19.46875 14.896484-8.623047-18.882812-10.845703z"/>
    <path class="c" d="M66.435547 26.59375l-6.126953 3.501953 4.376953 3.378906 1.75-6.880859z"/>
    <path class="a" d="M76.916016.2890625l-25.69336 3.2285156 4.867188 6.5566409 19.117187 10.980469L76.916016.2890625zM41.783203 61.152344l-8.742187 1.458984 14.572265 6.779297-5.830078-8.238281z"/>
    <path class="d" d="M25.796875 53.5l6.875 8.916016 4.316406-.771485.923828-5.52539L25.796875 53.5z"/>
    <path class="e" d="M3.3203125 60.470703l.0566406.042969.0117188-.027344-.0683594-.015625zm.6464844.261719l2.5898437 1.93164 1.3242188-1.046874-3.9140625-.884766z"/>
    <path class="a" d="M5.2949219 18.736328L.42578125 29.525391 6.296875 36.568359l12.464844-14.103515-13.4667971-3.728516z"/>
    <path class="b" d="M20.376953 21.039062L9.984375 32.863281l33.087891-5.486328-22.695313-6.337891z"/>
    <path class="a" d="M38.927734 28.292969l-21.205078 3.451172 6.765625 21.201171 16.435547 3.552735-1.996094-28.205078z"/>
    <path class="c" d="M39.810547 36.439453l1.371094 19.328125 3.99414 3.296875 6.507813-16.011719-11.873047-6.613281z"/>
    <path class="b" d="M57.316406 38.537109l-10.833984 1.361329 5.40625 2.980468 7.884766 1.955078-2.457032-6.296875z"/>
    <path class="d" d="M51.908203 43.179688l-1.261719 3.498046 2.34961.869141 2.96289-2.003906-4.050781-2.363281z"/>
    <path class="a" d="M46.761719 30.941406l-.541016 8.736328 10.84375-1.363281-10.302734-7.373047z"/>
  </g>
</svg>
